<svg xmlns="http://www.w3.org/2000/svg" data-name="Layer 1" width="921.18146" height="704.7708" viewBox="0 0 921.18146 704.7708" xmlns:xlink="http://www.w3.org/1999/xlink"><path d="M137.0036,298.40074c-16.74907,61.57552-2.94227,133.29142,43.69993,176.84119,37.0085,34.55482,89.397,47.98313,139.981,50.20114s101.04875-5.46114,151.65667-7.04349c34.61729-1.08237,74.833,3.65243,93.61677,32.75052,14.481,22.43263,10.85919,51.50327,15.52053,77.79382,11.10371,62.62633,72.72508,107.92931,135.98626,114.51517s126.17259-19.03589,178.339-55.42287c79.59888-55.52158,141.78348-140.91249,153.68146-237.23S1015.62161,249.38756,929.0636,205.4975c-54.67773-27.72486-118.7778-29.63762-179.86007-24.41475s-121.9117,16.98851-183.16418,14.448c-54.4413-2.258-111.69071-17.32049-152.84256-54.7462-39.19125-35.64263-105.40135-30.253-149.699-5.55995-14.2653,7.952-26.67166,20.9715-39.06466,31.72174A326.81559,326.81559,0,0,0,186.4786,205.65C164.01548,232.86144,146.29617,264.238,137.0036,298.40074Z" transform="translate(-130.16413 -115.37864)" fill="#3f3d56"/><path d="M766.61354,390.877c-57.33106.002-115.14649-20.02637-159.98242-55.67188-2.77735-2.208-5.59327-4.53125-8.3169-6.77783-14.62109-12.06348-29.73974-24.53711-48.17334-27.25391-19.898-2.93261-39.01074,6.12842-57.49316,14.8916-6.26709,2.9712-12.74756,6.04395-19.16553,8.6045a150.47131,150.47131,0,0,1-165.60937-36.69922,15.14706,15.14706,0,0,1,15.9248-24.728.99983.99983,0,0,1-.64844,1.8916,13.14683,13.14683,0,0,0-13.82324,21.46143A148.46775,148.46775,0,0,0,472.741,322.812c6.35937-2.53759,12.81055-5.59619,19.0498-8.55419,18.75245-8.89063,38.14405-18.084,58.64209-15.063,18.98438,2.79785,34.32178,15.45215,49.1543,27.68945,2.71631,2.24121,5.52539,4.55859,8.28809,6.75537,46.94482,37.32178,108.24951,57.38184,168.16552,55.05469,59.92725-2.334,119.4751-27.10693,163.375-67.9668a.99985.99985,0,0,1,1.36231,1.46387c-44.24463,41.18115-104.26074,66.14893-164.65918,68.501C772.95582,390.81594,769.78151,390.877,766.61354,390.877Z" transform="translate(-130.16413 -115.37864)" fill="#6c63ff"/><ellipse cx="362.32825" cy="254.6483" rx="3.60114" ry="5.17661" transform="translate(-103.68949 427.93879) rotate(-75.77932)" fill="#fff"/><ellipse cx="328.48463" cy="254.43014" rx="3.60114" ry="5.17661" transform="translate(-129.00771 394.96768) rotate(-75.77932)" fill="#3f3d56"/><ellipse cx="368.67924" cy="282.72675" rx="3.60114" ry="5.17661" transform="translate(-126.11671 455.27594) rotate(-75.77932)" fill="#ff6584"/><ellipse cx="379.3247" cy="294.33338" rx="3.27161" ry="2.27591" transform="translate(-85.47525 523.24855) rotate(-83.62433)" fill="#e6e6e6"/><ellipse cx="382.10762" cy="315.54122" rx="3.27161" ry="2.27591" transform="translate(-104.07804 544.86704) rotate(-83.62433)" fill="#3f3d56"/><ellipse cx="347.50734" cy="275.12529" rx="3.27161" ry="2.27591" transform="translate(-94.67011 474.55289) rotate(-83.62433)" fill="#e6e6e6"/><ellipse cx="364.53904" cy="268.72684" rx="3.27161" ry="2.27591" transform="translate(-73.17084 485.79133) rotate(-83.62433)" fill="#ff6584"/><ellipse cx="343.55673" cy="251.44033" rx="3.27161" ry="2.27591" transform="matrix(0.11105, -0.99382, 0.99382, 0.11105, -74.64353, 449.5719)" fill="#3f3d56"/><ellipse cx="873.32825" cy="483.6483" rx="3.60114" ry="5.17661" transform="translate(59.79695 1096.02457) rotate(-75.77932)" fill="#fff"/><ellipse cx="839.48463" cy="483.43014" rx="3.60114" ry="5.17661" transform="translate(34.47873 1063.05346) rotate(-75.77932)" fill="#3f3d56"/><ellipse cx="879.67924" cy="511.72675" rx="3.60114" ry="5.17661" transform="translate(37.36973 1123.36172) rotate(-75.77932)" fill="#ff6584"/><ellipse cx="890.3247" cy="523.33338" rx="3.27161" ry="2.27591" transform="translate(141.19608 1234.65835) rotate(-83.62433)" fill="#e6e6e6"/><ellipse cx="893.10762" cy="544.54122" rx="3.27161" ry="2.27591" transform="translate(122.5933 1256.27684) rotate(-83.62433)" fill="#3f3d56"/><ellipse cx="858.50734" cy="504.12529" rx="3.27161" ry="2.27591" transform="translate(132.00123 1185.96269) rotate(-83.62433)" fill="#e6e6e6"/><ellipse cx="875.53904" cy="497.72684" rx="3.27161" ry="2.27591" transform="translate(153.50049 1197.20112) rotate(-83.62433)" fill="#ff6584"/><ellipse cx="854.55673" cy="480.44033" rx="3.27161" ry="2.27591" transform="translate(152.0278 1160.98169) rotate(-83.62433)" fill="#3f3d56"/><circle cx="148.59443" cy="285.7708" r="4" fill="#fff"/><circle cx="36.59443" cy="223.7708" r="4" fill="#fff"/><circle cx="148.59443" cy="207.7708" r="4" fill="#fff"/><circle cx="401.59443" cy="271.7708" r="4" fill="#fff"/><circle cx="88.59443" cy="134.7708" r="2" fill="#fff"/><circle cx="303.59443" cy="311.7708" r="2" fill="#fff"/><circle cx="700.59443" cy="460.7708" r="2" fill="#fff"/><circle cx="442.59443" cy="368.7708" r="2" fill="#fff"/><circle cx="478.59443" cy="159.7708" r="2" fill="#fff"/><circle cx="805.59443" cy="236.7708" r="2" fill="#fff"/><circle cx="340.59443" cy="132.7708" r="2" fill="#fff"/><circle cx="704.59443" cy="120.7708" r="4" fill="#fff"/><circle cx="198.59443" cy="56.7708" r="4" fill="#fff"/><path d="M811.75856,820.14944h-2c0-20.72657-85.61182-50.57032-161.14551-76.90039C573.67457,717.126,527.845,700.52639,529.80934,688.9258c.84912-5.01757,9.22656-10.77636,66.94922-10.77636,111.18554,0,215.72607,9.21386,294.36426,25.94336,79.083,16.82422,122.63574,39.3955,122.63574,63.55664h-2c0-11.53809-10.81348-22.82813-32.14063-33.55469-20.876-10.5-50.79-19.93652-88.91113-28.0459-78.50586-16.70117-182.89844-25.89941-293.94824-25.89941-52.42969,0-64.27393,4.9541-64.97754,9.11035-1.78174,10.52246,58.85254,31.65918,117.49023,52.10058C729.155,769.20705,811.75856,798.003,811.75856,820.14944Z" transform="translate(-130.16413 -115.37864)" fill="#e6e6e6"/><path d="M982.75856,762.833h-2c0-8.54-34.88819-17.68359-86.82471-17.68359-51.936,0-86.82422,9.14355-86.82422,17.68359h-2c0-12.32129,45.16211-19.68359,88.82422-19.68359S982.75856,750.51174,982.75856,762.833Z" transform="translate(-130.16413 -115.37864)" fill="#e6e6e6"/><path d="M947.86158,768.64944h-2c0-4.82324-21.20654-10.19824-51.63671-10.19824s-51.63672,5.375-51.63672,10.19824h-2c0-7.92285,27.63476-12.19824,53.63672-12.19824S947.86158,760.72659,947.86158,768.64944Z" transform="translate(-130.16413 -115.37864)" fill="#e6e6e6"/><circle cx="603.59443" cy="171.7708" r="40" fill="#f2f2f2"/><circle cx="597.59443" cy="174.7708" r="40" fill="#f2f2f2"/><polygon points="639.091 599.275 629.19 599.274 624.48 561.084 639.093 561.085 639.091 599.275" fill="#f2f2f2"/><path d="M771.758,728.0946l-37.49223-.00143v-.47409a14.59381,14.59381,0,0,1,14.593-14.5928h.0009l6.84842-5.19554,12.77765,5.19637,3.27284.00007Z" transform="translate(-130.16413 -115.37864)" fill="#f2f2f2"/><polygon points="617.164 584.516 608.705 589.661 584.834 559.48 597.32 551.887 617.164 584.516" fill="#f2f2f2"/><path d="M754.30481,707.84516l-32.03269,19.48267-.24638-.40506a14.59382,14.59382,0,0,1,4.88417-20.0512l.00077-.00047,3.151-7.99784,13.61718-2.20069,2.79623-1.70076Z" transform="translate(-130.16413 -115.37864)" fill="#f2f2f2"/><path d="M776.32856,601.61941c-.17,1.19995-.42,5.28-.71,11.22-1.41,28.8-3.86,101.31006-3.86,101.31006l-15.27-4.75s-18.16-54.78-15.16-84.78l-2.16-10.43994-3.7-17.84009v-.01l-11.27-54.33s-2.47,14.7201-2.67,18.17-2.2,4.45-3.2,4.45c-5.01,0-3.47-.89-2.74,4.06006.53,3.55993-3.81,23.97-6.29,35.12988-.96,4.34009-1.64,7.28-1.64,7.28l4.24,9.14,35.15,75.80005-13.29,7.12-53.02-78.58008-5.23-7.75-1.12-8.68994-8.82-68.37s-2.75-7.73,0-7.93c2.76-.21,4.32.66,3.54-2.27-.78-2.93994,15.22-51.93994,15.22-51.93994l83,18s8.18,16.26,5,24c-3.19,7.74,2.61,67.67993-.7,70.34009-3.3,2.65991-5.43.5299-.87,5.09985a8.38633,8.38633,0,0,0,2.43,1.76C776.00856,598.09939,777.12855,596.01943,776.32856,601.61941Z" transform="translate(-130.16413 -115.37864)" fill="#f2f2f2"/><circle cx="597.3344" cy="176.63539" r="23.0557" fill="#a0616a"/><path d="M745.46531,311.87033l-9.14,1.75s8.5-13.72,8-20c-.5-6.28-7.34-8.53-7.34-8.53s-3.79.82-7.78,1.28a20.06106,20.06106,0,0,0-1.85-3.85,6.71594,6.71594,0,0,1-1.96,4.14,10.93523,10.93523,0,0,1-4.33-.5c-1.58-.72-1.55-1.97-1.03-3.14a41.62375,41.62375,0,0,0-14.82,4.07,40.89915,40.89915,0,0,1,.35-9.2c.22-.06.44-.12994.66-.2a20.41416,20.41416,0,0,0,3.92-1.71,6.75155,6.75155,0,0,1-3.7-1.74c.84-2.46,2.18-4.59,4.29-5.63a15.81549,15.81549,0,0,1,13.13-.35s-4.89-3.57-3.09-5.03c.12.12.24.23.37.34.17.13995.36.29.54.43,1.11.9,2.77-.37,2.99-1.73a4.5857,4.5857,0,0,1,.1-.51c.03-.14.07-.28.11-.41a3.39189,3.39189,0,0,1,.12-.34c3.33-.8,13.4,2.45,17.27,9.61C742.27531,270.62033,769.3253,283.62033,745.46531,311.87033Z" transform="translate(-130.16413 -115.37864)" fill="#3f3d56"/><path d="M737.11353,517.43043a8.93378,8.93378,0,0,1,7.32069-10.08344,8.571,8.571,0,0,1,1.41311-.10276l24.107-55.98179,16.53748,12.41592-32.19849,53.034a8.909,8.909,0,0,1-7.366,8.00259,8.52589,8.52589,0,0,1-9.77953-7.05282Q737.12908,517.5465,737.11353,517.43043Z" transform="translate(-130.16413 -115.37864)" fill="#6c63ff"/><path d="M669.58262,521.99364A8.93378,8.93378,0,0,0,669.577,509.533a8.57136,8.57136,0,0,0-1.08357-.91287l13.35471-59.47066-20.67673.34075-5.07395,61.83525a8.909,8.909,0,0,0,1.264,10.80284,8.52587,8.52587,0,0,0,12.05737.03276Q669.50188,522.07847,669.58262,521.99364Z" transform="translate(-130.16413 -115.37864)" fill="#6c63ff"/><path d="M802.82856,422.43942c-3,4-7-.51-3,5.25,2.75,3.96-13.01,41.08-23.1,63.82-4.56,10.28992-7.97,17.64-7.97,17.64l-17.01-9.8501-1.99-1.1499s15.6-39.26,20.62-53.37c.83-2.34,1.38-3.99,1.51-4.65.94-4.69,1.06-8.71,0-10.2a13.90563,13.90563,0,0,1-.64-1.71c-2.01-5.89-8.13-25.78-13.86-44.59-1.67-5.52-3.32-10.94-4.82-15.89-3.85-12.71-6.74-22.3-6.74-22.3l23,1s.38.64,1.05,1.8c1.6,2.76,4.88,8.45,8.68,15.29,2.74,4.92,5.76,10.45,8.61,15.89,7.26,13.84,13.51,27.17,11.66,29.02-4,4-8.09,1.73-3.05,6.86C800.82856,420.43942,805.82856,418.43942,802.82856,422.43942Z" transform="translate(-130.16413 -115.37864)" fill="#f2f2f2"/><path d="M775.32533,475.62038c-6-5.94006-4.89-33.01007-4.89-33.01007s5.97-90.9-2.11-96.99a112.67385,112.67385,0,0,0-17.76-10.49c-.36-.16-.55-.25-.55-.25l-5.16-14.55-31.79-1.65-5.55,10.78s-.87.06-2.23.25c-5.08.7-17.02,3.18-15.96,10.91,1.34,9.8-8.12,69.99-11,73s-2.12,14.01,5,21,2,26-3,34a27.38474,27.38474,0,0,0-3.96,16.33991s3.96,21.66015,13.96,14.66015c3.81-2.67016,9.22-3.01,15.73-2.52.06348.00463.13226.01293.196.01782l-.196.98218c9.04.66992,20.21,2.93994,32.16,2.80993l-.35388-1.00452c.11884-.00073.23487.00586.35388.00452,2.02-.02,4.05-.11,6.11-.28992,17.82-1.55,25.69,3.34986,28-2C774.63533,492.27029,781.32533,481.56033,775.32533,475.62038Z" transform="translate(-130.16413 -115.37864)" fill="#f2f2f2"/><circle cx="597.59443" cy="174.7708" r="30" fill="#6c63ff" opacity="0.3"/><path d="M713.32856,335.43942s-4.56,15.14-9.87,32.61c-1.67,5.5-3.42,11.23-5.12,16.80005-5.55,18.11-10.61,34.43-11.08,35.08-1.06,1.49-.93,5.51,0,10.2.19.94-.24,4.6-1.05,9.85-1.06,6.89-2.77,16.51-4.59,26.33-1.45,7.85-2.97,15.82-4.28,22.61005-2.05,10.54-3.58,18.23-3.58,18.23h-19s3.57-79.71,7.57-85.46c4-5.76,0-1.25-3-5.25s2-2,7.04-7.14c5.04-5.13.96-2.86-3.04-6.86-1.48-1.48,1.83-10.91,6.59-22.2,2.22-5.24,4.75-10.88995,7.25-16.32995,5.17-11.23,10.24-21.56,12.25-25.64,0-.01.01-.02.01-.03l.9-1.8Z" transform="translate(-130.16413 -115.37864)" fill="#f2f2f2"/><path d="M754.75856,339.14944c-20.879,8.1098-39.65113,9.50775-55,0v-18c18.07686,10.84643,36.4172,10.54986,55,0Z" transform="translate(-130.16413 -115.37864)" fill="#3f3d56"/><path d="M770.75856,454.14944c-32.26747,8.1098-61.279,9.50775-85,0v-18c27.937,10.84643,56.28113,10.54986,85,0Z" transform="translate(-130.16413 -115.37864)" fill="#3f3d56"/><path d="M776.32856,601.61941c-.17,1.19995-.42,5.28-.71,11.22a147.58427,147.58427,0,0,1-36.45,1.34009l-3.7-17.84009a112.88652,112.88652,0,0,0,37.72.48C776.00856,598.09939,777.12855,596.01943,776.32856,601.61941Z" transform="translate(-130.16413 -115.37864)" fill="#3f3d56"/><path d="M711.89857,620.22939a195.43341,195.43341,0,0,1-31.16,4.34l-5.23-7.75-1.12-8.68994a118.57185,118.57185,0,0,0,34.91-4.32007c-.96,4.34009-1.64,7.28-1.64,7.28Z" transform="translate(-130.16413 -115.37864)" fill="#3f3d56"/><path d="M714.75856,377.14944a10,10,0,0,1-20,0c0-5.52285,9-17,10-10S714.75856,371.62659,714.75856,377.14944Z" transform="translate(-130.16413 -115.37864)" fill="#6c63ff"/><path d="M704.75856,394.14944a17,17,0,1,1,17-17A17.019,17.019,0,0,1,704.75856,394.14944Zm0-32a15,15,0,0,0,0,30c8.271,0,16.93829-6.95935,15-15C718.53566,372.07653,708.8885,372.97921,704.75856,362.14944Z" transform="translate(-130.16413 -115.37864)" fill="#6c63ff"/></svg>